<svg width="32" height="20" viewBox="0 0 32 20" fill="none" xmlns="http://www.w3.org/2000/svg">
<path d="M9.74759 10.4973L9.15149 11.9241C9.88399 12.4822 10.3468 13.2972 10.3468 14.2037C10.3468 15.8841 8.75515 17.2507 6.79908 17.2507C4.84301 17.2507 3.24791 15.8841 3.24791 14.2037C3.24791 12.626 4.6524 11.3186 6.4501 11.1707L7.08443 9.64898C6.98931 9.64232 6.89419 9.63908 6.79908 9.63927C4.0058 9.63813 1.73242 11.6864 1.73242 14.2037C1.73242 16.7211 4.0058 18.7662 6.79908 18.7662C9.59236 18.7662 11.8623 16.7214 11.8623 14.2037C11.8623 12.6788 11.0285 11.3251 9.74759 10.4973Z" fill="#332C2B"/>
<path d="M21.9327 8.30426L24.0443 13.664C23.9786 13.8363 23.9451 14.0192 23.9455 14.2036C23.9455 14.9689 24.5077 15.5892 25.2011 15.5892C25.8945 15.5892 26.4566 14.9689 26.4566 14.2036C26.4566 13.4933 25.9715 12.9144 25.3463 12.8339L23.2293 7.46133C23.5371 7.34789 23.8653 7.30026 24.1926 7.32151C25.9196 7.44507 26.4569 6.32137 25.8608 4.98336H26.0891C26.118 4.97937 26.1474 4.97937 26.1764 4.98336C26.224 4.99735 26.2426 5.07468 26.2905 5.09037C26.3476 5.10806 26.4087 5.06383 26.4597 5.03587C26.5722 4.97457 26.6718 4.89234 26.7534 4.79361C26.9286 4.58131 27.0193 4.27399 26.9839 3.94612C26.8983 3.15941 26.0734 3.02387 25.7569 3.00076C25.6999 2.99676 25.6596 3.08009 25.6819 3.15599L25.8985 3.9036C25.9199 3.97722 25.8819 4.05855 25.826 4.05855H25.2838C24.3684 2.91173 22.682 1.77576 20.2554 1.24358C19.9829 1.18337 19.7449 1.50667 19.7766 1.89361L19.9192 3.62482C19.9512 4.373 19.4376 5.09265 19.0347 5.44449C17.8362 6.494 16.2511 6.22463 14.8971 6.24033C13.0519 6.26258 11.2066 6.28589 9.36134 6.31024C8.15032 6.32603 6.94025 6.34077 5.73113 6.35447H5.6772C4.76722 6.35447 3.94941 7.05214 3.5054 8.13647C3.37557 8.45977 3.54992 8.8624 3.80987 8.85298C4.06982 8.84356 4.41224 8.837 4.80545 8.83386C5.71372 8.83101 6.90477 8.86468 8.03475 9.01249L6.41568 12.8904C5.91033 13.0696 5.54223 13.5864 5.54223 14.203C5.54223 14.9683 6.10436 15.5886 6.79776 15.5886C7.49116 15.5886 8.0533 14.9683 8.0533 14.203C8.05406 13.9285 7.97858 13.6592 7.83529 13.4251L9.55452 9.31268C10.2773 9.54552 10.9758 9.96556 11.4821 10.5111C11.6332 10.6717 11.7743 10.8415 11.9047 11.0194L12.0242 11.0818L14.3418 11.1295C14.5256 11.1358 14.7065 11.0279 14.8238 10.8282C15.3057 10.0007 17.0718 8.98281 17.3443 10.7457C17.5603 12.1393 15.3985 12.5639 13.1759 12.5434C13.1219 12.5428 13.0685 12.5545 13.0198 12.5776C12.971 12.6007 12.9282 12.6347 12.8946 12.6769C12.861 12.7191 12.8374 12.7684 12.8257 12.8211C12.814 12.8737 12.8145 12.9284 12.8272 12.9808C12.9232 13.3813 12.9719 13.7917 12.9721 14.2036C12.9727 14.7433 12.8889 15.2799 12.7239 15.7938C12.7059 15.8474 12.7009 15.9045 12.7093 15.9604C12.7177 16.0163 12.7392 16.0694 12.7721 16.1154C12.805 16.1614 12.8483 16.1989 12.8985 16.2249C12.9487 16.2509 13.0044 16.2646 13.0609 16.2649H17.5917C18.2668 16.2649 18.8472 15.5767 18.9645 14.6287C19.2039 12.7118 20.3461 9.81204 21.9327 8.30426Z" fill="#332C2B"/>
<path d="M25.2008 9.63818C25.0581 9.63818 24.9154 9.64474 24.7762 9.65416L25.3689 11.1571C27.249 11.233 28.752 12.571 28.752 14.2038C28.752 15.8842 27.1571 17.2507 25.2008 17.2507C23.2444 17.2507 21.653 15.8842 21.653 14.2038C21.653 13.3543 22.0619 12.5804 22.7185 12.0257L22.1444 10.5673C20.9271 11.4011 20.1376 12.7199 20.1376 14.2038C20.1376 16.7214 22.4078 18.7662 25.2008 18.7662C27.9938 18.7662 30.2674 16.7214 30.2674 14.2038C30.2674 11.6861 27.9941 9.63818 25.2008 9.63818Z" fill="#332C2B"/>
</svg>
