<svg width="221" height="73" viewBox="0 0 221 73" fill="none" xmlns="http://www.w3.org/2000/svg">
<path fill-rule="evenodd" clip-rule="evenodd" d="M114.825 18.8192C115.13 18.7176 114.825 18.108 114.52 17.9048C114.112 17.4984 113.705 17.8032 113.095 17.3968C112.382 16.6856 110.347 16.076 109.634 14.7552C109.227 13.9424 110.449 12.7232 110.143 11.7073C109.838 10.9961 108.617 10.6913 108.413 9.67527C108.413 9.16727 108.108 8.25288 108.311 7.84648C108.515 7.44009 109.024 7.64328 109.125 7.23689C109.329 6.32249 108.718 5.5097 108.922 4.59531C108.922 4.49371 109.024 4.29051 109.125 4.18891C107.904 3.57931 105.767 3.17292 104.647 3.37612C103.222 3.57931 104.24 2.46172 103.222 2.46172C101.797 2.56332 100.983 1.14093 99.7619 1.34413C99.3548 1.44573 98.0317 1.85213 97.8282 1.95373C96.4033 2.86812 97.9299 6.83049 96.9122 7.44009C94.266 8.65928 93.1464 14.3488 90.8056 14.552C89.3807 14.6536 89.2789 15.9744 87.4469 15.9744C85.8185 15.9744 86.022 15.06 85.106 15.1616C84.3936 15.2632 84.8007 14.552 83.1723 14.6536C81.6456 14.6536 80.5261 16.584 78.9994 17.092C78.4905 17.2952 78.1852 16.9904 77.6763 17.092C77.1674 17.2952 76.8621 16.6856 75.7425 16.584C75.0301 16.584 74.8266 17.1936 73.9106 17.092C73.1981 16.9904 71.7732 15.4664 71.3661 15.2632C70.3484 15.06 70.2466 15.2632 69.9413 14.3488C69.9413 14.2472 69.0253 12.9264 68.9235 12.4184C67.9057 12.3168 68.5164 13.4344 66.5826 13.9424C65.6666 14.1456 66.1755 15.4664 65.972 16.2792C65.6666 17.4984 64.8524 18.8192 64.9542 20.0384C65.056 20.7496 66.0737 20.8512 66.3791 21.4608C66.6844 22.2736 66.4808 22.9848 66.7862 23.696C67.1933 24.6104 66.6844 25.0168 66.7862 25.6264C66.8879 25.9311 67.1933 26.0327 67.3968 26.3375C67.6004 26.8455 67.0915 27.0487 68.0075 27.9631C68.211 28.1663 68.9235 27.7599 69.2288 27.9631C69.6359 28.2679 69.7377 28.6743 70.1448 29.0807C70.6537 29.4871 69.7377 29.7919 69.9413 30.4015C70.043 30.9095 70.8573 31.2143 71.0608 31.6207C71.4679 32.2303 71.2644 34.1607 71.9768 35.3799C72.1804 35.7863 72.791 35.3799 73.1981 35.3799C73.9106 35.5831 73.6052 36.2943 75.539 36.1927C76.2514 36.1927 76.455 35.2783 77.1674 35.2783C78.0834 35.2783 78.9994 35.6847 79.6101 36.2943C80.0172 36.5991 79.3047 37.4119 79.8136 37.7167C80.6278 38.2247 80.9332 36.9039 81.6456 36.8023C82.1545 36.8023 82.7652 37.6151 83.2741 37.6151C84.19 37.6151 85.106 36.2943 86.022 36.3959C87.0398 36.4975 88.0576 37.6151 89.1771 37.8183C90.3984 38.0215 91.1109 36.9039 92.1287 37.6151C93.6553 38.6311 91.6198 40.8662 92.434 41.7806C92.6375 41.9838 94.8766 40.2566 95.8944 40.3582C96.6068 40.4598 97.2175 39.2406 97.6246 39.2406C98.9477 39.2406 98.9477 38.5295 99.4566 38.7327C100.067 38.9359 99.7619 40.2566 100.474 40.155C101.289 40.0534 101.696 39.0375 101.797 38.2247C101.797 37.5135 100.78 37.3103 100.678 36.5991C100.576 36.1927 101.289 35.7863 101.39 35.3799C101.594 34.8719 101.492 34.2623 101.797 33.8559C102.103 33.4495 102.917 34.0591 102.917 33.5511C103.019 33.0431 101.492 31.3159 101.696 30.4015C102.103 28.8775 102.917 28.0647 104.342 27.0487C104.953 26.7439 105.767 26.5407 106.072 26.1343C106.785 25.0168 106.785 23.696 107.293 22.4768C107.599 21.7656 107.395 20.5464 108.209 20.2416C110.245 19.2256 112.586 19.632 114.825 18.8192ZM7.14482 1.44573C7.65371 1.54733 8.36615 1.95373 8.87503 2.05533C9.48569 2.05533 10.0964 1.85213 10.6052 1.75053C11.1141 1.75053 11.5212 1.95373 12.0301 2.05533C13.0479 2.36012 14.371 3.07132 14.7781 3.88411C15.0834 4.69691 16.5083 5.0017 16.7119 5.9161C16.9154 6.93209 17.5261 6.83049 18.2385 7.44009C18.6456 7.74488 18.951 8.25288 19.3581 8.55768C20.3758 9.26887 21.5972 9.57367 22.6149 10.0817C22.9203 10.2849 23.2256 10.7929 23.4291 10.9961C23.938 11.7073 24.854 12.4184 25.8718 12.8248C26.2789 13.028 26.3807 14.552 26.7878 14.8568C27.9073 15.3648 28.9251 13.8408 29.5358 14.3488C29.8411 14.552 30.35 15.06 30.8589 15.1616C31.0624 15.1616 31.5713 14.7552 31.6731 14.9584C31.9784 15.4664 33.3015 15.8728 32.6909 16.3808C32.3855 16.584 32.182 17.1936 32.2838 17.2952C32.5891 17.4984 33.4033 17.2952 33.8104 17.2952C34.4211 17.1936 35.7442 17.2952 36.2531 18.108C36.6602 18.9208 37.169 17.9048 37.5762 18.4128C38.4921 19.5304 37.7797 20.5464 38.5939 20.7496C39.6117 21.0544 38.4921 19.5304 39.3064 19.2256C39.6117 19.124 39.7135 19.5304 40.2224 20.3432C40.7312 21.156 39.917 21.4608 40.0188 22.172C40.1206 22.5784 41.0366 23.3912 41.2401 23.5944C42.0543 24.5088 41.0366 24.5088 40.6295 25.3216C40.4259 26.0327 39.6117 26.4391 39.8153 26.8455C40.0188 27.3535 40.1206 27.8615 40.9348 27.9631C42.5632 28.0647 42.665 26.9471 43.6828 27.9631C44.5988 28.8775 44.1917 29.3855 44.3952 29.5887C45.1077 30.5031 44.2934 31.2143 45.3112 31.9255C46.1254 32.5351 46.329 33.5511 47.245 33.4495C47.5503 33.4495 47.6521 33.2463 48.4663 33.5511C49.3823 33.9575 49.5858 34.1607 49.8912 34.7703C50.0947 35.2783 50.9089 35.7863 51.1125 36.0911C52.3338 37.9199 50.7054 37.7167 50.7054 38.8343C50.7054 39.1391 51.7232 39.9518 51.7232 40.2566C51.6214 40.9678 51.0107 41.171 50.8072 41.8822C50.6036 42.5934 51.7232 42.9998 51.0107 44.5238C50.8072 44.9302 51.0107 45.4382 50.6036 46.1494C50.2983 46.759 50.7054 47.775 50.4001 48.0798C49.993 48.4862 48.8734 46.8606 48.161 47.5718C47.3468 48.283 46.7361 46.5558 45.6165 47.1654C45.413 47.267 45.1077 47.8766 45.3112 48.1814C45.8201 48.8926 46.5325 47.9782 46.7361 49.0958C46.8379 49.807 45.6165 49.0958 45.0059 48.1814C44.7005 47.6734 43.9881 47.3686 43.6828 46.8606C43.1739 46.1494 42.5632 46.0478 41.8508 45.6414C40.7312 45.0318 40.4259 44.4222 39.4081 43.8126C38.3904 43.1014 37.0673 42.3902 36.0495 41.5774C34.6246 40.5614 34.8282 39.2406 33.5051 38.6311C30.8589 37.6151 31.1642 36.3959 30.2482 35.7863C28.7216 34.8719 28.518 32.9415 27.5002 31.7223C26.7878 30.9095 26.8896 29.9951 26.0754 29.3855C25.2611 28.6743 25.4647 26.4391 24.9558 26.0327C24.1416 25.4232 22.8185 24.9152 22.4114 24.1024C21.8007 22.9848 21.1901 23.188 20.7829 22.68C19.9687 21.664 19.2563 20.14 19.1545 19.4288C18.7474 17.3968 17.119 17.8032 17.2207 16.7872C17.3225 15.7712 15.3888 15.7712 14.4728 14.9584C13.3532 14.044 13.6586 13.028 13.1497 12.2153C12.6408 11.6057 11.623 11.4025 11.2159 10.8945C10.6052 10.3865 9.99458 9.47207 9.07859 9.47207C8.26437 9.37047 8.5697 8.86248 7.65371 8.25288C7.04305 7.84648 6.02527 7.13529 5.51639 6.62729C4.90573 5.9161 4.49862 5.1033 3.78618 4.69691C3.48085 4.49371 3.58263 3.88411 3.27729 3.68091C2.66663 3.17292 0.834646 2.96972 0.631091 2.25852C0.529314 1.64893 -0.0813478 1.54733 0.427537 1.34413C1.13998 0.937734 1.95419 0.632936 2.66663 0.734535C3.48085 0.836134 4.19329 1.34413 5.0075 1.54733C5.82172 1.64893 6.22883 1.44573 7.14482 1.44573ZM2.87019 8.04968C4.39684 7.94808 4.29507 8.76088 5.0075 9.26887C5.41461 9.47207 5.61817 10.1833 6.12705 10.1833C6.63594 10.2849 7.14482 10.8945 6.94127 11.1993C6.33061 12.1137 4.80395 10.9961 3.88796 10.2849C3.48085 10.0817 2.87019 9.77687 2.56486 9.37047C2.15775 8.86248 2.25952 8.04968 2.87019 8.04968ZM8.77325 12.3168C8.67148 12.0121 8.87503 11.6057 9.18036 11.4025C9.48569 11.0977 9.68925 10.8945 9.8928 10.8945C10.6052 10.6913 11.623 10.9961 11.7248 11.7073C11.8266 12.3168 11.0123 12.4184 10.0964 12.8248C9.07859 13.3328 8.77325 12.8248 8.77325 12.3168ZM8.87503 14.7552C9.58747 14.552 10.8088 14.552 11.623 15.06C12.1319 15.3648 12.3355 15.7712 12.539 16.3808C12.7426 16.8888 13.1497 17.3968 13.1497 17.8032C13.2514 18.7176 12.2337 19.9368 11.7248 19.7336C10.5035 19.2256 10.4017 17.9048 9.79103 16.7872C9.38392 16.2792 8.26437 14.8568 8.87503 14.7552ZM16.1012 20.5464C16.5083 20.5464 17.0172 20.7496 17.119 21.156C17.2207 21.4608 16.203 21.8672 16.203 22.172C16.3048 23.3912 15.8976 24.0008 15.0834 24.3056C13.8621 24.9152 14.5745 23.696 14.7781 23.4928C15.7959 22.68 14.0657 22.0704 14.6763 21.7656C15.1852 21.4608 15.5923 20.648 16.1012 20.5464ZM16.7119 25.8295C17.9332 25.0168 17.7296 26.6423 18.035 27.0487C18.3403 27.4551 19.0527 27.8615 19.2563 28.3695C19.4598 28.8775 18.8492 29.5887 19.0527 29.8935C19.6634 30.5031 18.6456 30.6047 18.4421 30.4015C17.7296 29.5887 16.7119 29.1823 16.8136 28.1663C16.9154 27.6583 15.8976 27.4551 15.8976 26.4391C15.8976 26.1343 16.5083 26.0327 16.7119 25.8295ZM22.106 32.1287C21.5972 31.7223 21.8007 31.3159 21.1901 31.1127C20.7829 31.0111 20.5794 31.4175 20.6812 31.8239C20.8847 32.1287 21.2918 32.2303 21.6989 32.3319C21.8007 32.4335 22.2078 32.2303 22.106 32.1287ZM23.2256 33.4495C23.938 34.6687 25.3629 34.7703 24.9558 36.3959C24.9558 36.4975 24.1416 35.7863 23.3274 35.2783C22.7167 34.9735 22.4114 34.2623 22.6149 33.6527C22.7167 33.1447 23.022 33.0431 23.2256 33.4495ZM33.098 44.8286C34.014 45.3366 34.7264 44.8286 34.8282 46.0478C34.93 47.4702 34.3193 46.759 33.9122 46.6574C32.6909 46.251 32.8944 46.0478 32.4873 45.6414C32.0802 45.0318 32.7926 44.727 33.098 44.8286ZM53.2498 9.67527C53.3516 9.47207 54.064 9.57367 54.1658 9.87847C54.4711 10.1833 54.1658 10.8945 54.2676 11.3009C54.2676 11.6057 54.8783 11.6057 54.7765 11.9105C54.6747 12.2153 54.5729 12.6216 54.2676 12.6216C53.8605 12.7232 54.1658 11.9105 53.5552 12.0121C53.148 12.1137 53.3516 13.1296 53.148 12.9264C52.6392 12.4184 51.3161 11.4025 51.9267 10.9961C52.4356 10.6913 53.2498 11.4025 53.3516 11.0977C53.6569 10.0817 53.148 9.87847 53.2498 9.67527ZM45.6165 18.4128C46.1254 17.4984 45.5148 17.7016 45.5148 17.2952C45.413 16.8888 46.2272 16.2792 45.2094 15.8728C44.2934 15.568 44.497 16.8888 43.1739 16.3808C42.2579 15.9744 40.6295 16.584 40.4259 17.4984C40.3241 18.3112 41.9526 18.3112 42.665 18.616C42.9703 18.7176 43.3774 19.2256 43.6828 19.124C43.9881 19.0224 43.9881 18.4128 44.497 18.2096C44.9041 18.108 45.5148 18.7176 45.6165 18.4128ZM45.0059 21.664C45.7183 21.4608 45.8201 22.172 46.2272 22.4768C46.6343 22.7816 47.3468 23.2896 46.6343 23.7976C46.329 24.0008 45.8201 23.5944 45.7183 23.7976C45.3112 24.1024 45.1077 24.9152 44.5988 24.8136C43.6828 24.712 42.4615 24.3056 42.5632 23.3912C42.5632 22.68 43.9881 23.188 44.1917 22.8832C44.497 22.172 43.4792 21.9688 43.6828 21.664C43.9881 21.4608 44.5988 21.7656 45.0059 21.664ZM49.6876 31.0111C50.0947 31.1127 49.993 31.8239 50.2983 32.1287C50.5018 32.4335 51.1125 32.5351 51.1125 33.0431C51.1125 33.4495 51.7232 33.7543 51.9267 34.2623C52.4356 34.8719 52.7409 36.3959 53.5552 36.1927C54.2676 36.0911 54.8783 36.7007 55.4889 36.2943C55.9978 35.7863 55.4889 35.2783 55.3871 34.6687C55.3871 34.3639 54.98 34.2623 55.0818 33.9575C55.1836 33.6527 55.7942 33.6527 55.896 33.3479C55.9978 33.0431 55.5907 32.9415 55.2854 32.8399C54.5729 32.6367 53.5552 32.8399 52.9445 32.2303C52.3338 31.5191 52.7409 30.1983 52.232 29.1823C52.0285 28.6743 51.3161 28.1663 50.4001 28.0647C49.1787 27.9631 48.5681 28.6743 47.8556 29.7919C47.5503 30.1983 46.9396 30.5031 47.3468 30.9095C47.9574 31.4175 48.9752 30.8079 49.6876 31.0111ZM59.1529 35.6847C59.3564 35.7863 59.56 36.1927 59.8653 36.1927C60.6795 36.0911 60.5778 36.9039 61.1884 36.8023C61.6973 36.8023 62.308 37.2087 62.6133 36.9039C63.1222 36.3959 62.0026 36.4975 62.0026 36.0911C62.0026 35.7863 62.8169 35.6847 62.8169 35.3799C62.9186 34.4655 62.7151 34.2623 62.308 33.3479C62.2062 33.0431 61.2902 32.5351 60.9849 32.7383C60.2724 33.0431 59.8653 32.7383 59.3564 33.1447C59.0511 33.2463 59.1529 33.6527 58.8476 33.9575C58.5422 34.3639 57.9316 34.6687 57.9316 35.0751C57.9316 35.5831 58.644 35.3799 59.1529 35.6847ZM65.2595 29.8935C64.9542 29.5887 64.7506 28.9791 65.056 28.7759C65.4631 28.5727 65.5648 29.1823 66.0737 29.0807C66.3791 29.0807 66.6844 28.7759 67.0915 28.7759C67.3968 28.7759 67.9057 28.9791 67.8039 29.1823C67.6004 29.6903 67.3968 29.8935 66.8879 30.0967C66.5826 30.1983 66.2773 29.6903 65.972 29.6903C65.6666 29.6903 65.4631 30.0967 65.2595 29.8935ZM220.571 34.7703C220.775 34.9735 219.961 35.2783 219.859 35.5831C219.859 35.9895 220.469 36.2943 220.469 36.7007C220.469 39.8502 219.655 40.5614 219.757 45.9462C219.757 46.759 220.164 48.1814 220.164 48.9942C220.164 49.4006 219.757 49.4006 219.757 49.807C219.757 50.315 220.266 50.6198 220.266 51.1278C220.266 51.9406 219.859 52.9565 219.859 53.6677C219.452 57.3253 219.248 61.4909 218.638 64.4373C216.297 63.4213 216.195 62.4053 214.77 60.9829C213.854 60.1701 213.04 61.1861 210.902 60.5765C210.597 60.5765 210.394 60.0685 209.986 60.0685C209.579 60.1701 208.969 60.4749 208.867 60.8813C208.562 61.7957 207.544 62.3037 206.831 62.3037C204.999 61.3893 202.557 62.1005 202.455 60.4749C202.251 58.4429 202.964 58.8493 203.676 58.4429C203.982 58.3413 204.083 58.0365 204.592 57.7317C204.796 57.5285 205.203 57.3253 205.305 57.0205C205.508 56.7157 205.305 56.3093 205.61 56.1061C206.322 55.6997 207.747 56.4109 207.442 55.5981C206.526 53.0581 206.221 50.7214 204.287 48.5878C202.862 46.8606 195.331 43.711 192.99 43.4062C191.667 43.203 190.649 44.1174 189.02 42.4918C188.817 42.187 188.512 41.7806 188.206 41.7806C187.494 41.679 186.883 42.2886 186.272 41.9838C185.356 41.4758 184.44 39.2406 184.033 39.4438C183.117 39.7486 184.44 42.695 182.507 42.8982C180.878 43.1014 179.555 41.171 179.046 39.4438C178.741 38.6311 175.993 37.8183 175.179 36.3959C174.873 35.7863 175.586 35.2783 176.298 35.0751C177.418 34.8719 178.741 35.4815 179.86 35.2783C180.471 35.2783 181.896 34.3639 181.387 34.0591C180.573 33.6527 179.86 34.6687 178.944 34.4655C178.334 34.3639 177.621 34.3639 177.011 34.0591C176.502 33.7543 176.502 32.5351 175.891 32.5351C174.568 32.4335 175.179 31.1127 174.568 30.9095C172.634 30.0967 172.736 30.9095 171.718 30.2999C170.904 29.7919 170.497 29.7919 170.192 29.5887C169.174 28.5727 167.953 27.7599 167.953 27.0487C167.953 26.3375 169.072 26.8455 169.785 26.5407C170.497 26.2359 171.617 26.8455 172.227 27.1503C172.533 27.2519 172.024 26.2359 174.873 26.1343C176.196 26.0327 177.316 24.1024 178.537 24.6104C179.759 25.1184 181.591 25.6264 183.117 26.1343C184.033 26.3375 185.255 26.0327 185.865 26.6423C186.272 27.0487 187.29 27.2519 187.392 27.8615C187.392 30.5031 186.374 30.4015 186.578 31.7223C186.578 32.1287 187.392 31.8239 187.799 32.0271C188.308 32.1287 187.901 33.4495 188.512 33.5511C189.224 33.5511 188.715 34.3639 188.817 34.7703C189.02 35.4815 189.529 35.7863 189.936 36.3959C190.242 37.0055 189.529 37.6151 190.852 38.2247C192.481 38.9359 192.684 37.1071 193.6 36.5991C194.822 36.0911 196.654 34.6687 196.552 33.0431C194.618 32.3319 193.804 32.4335 192.99 31.6207C192.481 31.1127 191.565 31.2143 190.954 30.7063C190.649 30.4015 190.547 29.3855 191.056 29.2839C191.667 29.1823 192.481 30.7063 194.007 30.5031C195.534 30.2999 197.163 30.9095 198.689 31.0111C199.402 31.0111 199.809 31.7223 200.216 31.6207C201.641 31.2143 203.167 29.0807 203.676 29.4871C206.933 31.2143 208.663 33.0431 211.513 33.7543C213.854 34.2623 215.686 33.6527 217.722 33.8559C218.129 33.9575 218.332 34.2623 218.739 34.3639C219.35 34.5671 220.164 34.3639 220.571 34.7703ZM194.313 28.1663C194.822 28.2679 195.229 29.0807 195.839 29.1823C196.552 29.1823 197.366 29.0807 197.57 28.4711C197.671 27.7599 196.755 27.5567 196.247 27.1503C195.534 26.5407 194.72 26.4391 194.109 25.9311C193.804 25.6264 193.499 26.0327 193.091 26.1343C192.888 26.2359 192.175 25.9311 191.972 26.1343C191.768 26.4391 191.972 26.9471 192.074 27.2519C192.175 27.6583 192.481 27.8615 192.786 27.9631C193.397 28.1663 193.702 27.9631 194.313 28.1663ZM190.852 28.7759C190.547 28.0647 190.038 27.6583 189.326 27.1503C188.817 26.8455 189.122 28.1663 189.326 28.6743C189.326 28.8775 189.835 29.0807 190.038 29.0807C190.343 29.0807 190.852 29.0807 190.852 28.7759ZM171.006 25.22C171.82 25.1184 172.838 25.1184 173.143 24.4072C173.347 23.7976 172.227 23.0864 171.515 23.0864C170.09 23.0864 169.683 22.4768 168.461 22.4768C168.054 22.5784 168.258 22.9848 167.953 23.0864C167.342 23.3912 165.917 22.7816 166.019 23.2896C166.222 24.3056 167.444 24.6104 168.36 25.1184C168.767 25.4232 169.276 25.0168 169.683 25.0168C170.192 25.0168 170.497 25.3216 171.006 25.22ZM168.563 31.9255C168.869 31.6207 167.749 31.0111 167.342 31.0111C166.426 30.9095 165.51 30.7063 164.899 31.4175C164.492 31.8239 166.019 31.9255 166.528 32.2303C167.342 32.8399 168.054 32.4335 168.563 31.9255ZM190.649 48.8926C190.242 49.1974 190.751 50.1118 190.954 50.2134C191.259 50.5182 192.074 50.0102 192.074 49.6038C192.175 48.791 190.954 48.791 190.649 48.8926ZM188.41 46.9622C188.919 46.9622 188.308 49.1974 189.122 49.7054C189.529 50.0102 189.224 53.9725 187.799 55.1917C187.494 55.4965 187.29 54.9885 186.68 54.8869C185.865 54.6837 185.255 53.4645 185.458 52.9565C185.764 52.0422 186.374 50.2134 186.374 48.1814C186.374 47.3686 187.901 46.9622 188.41 46.9622ZM181.794 46.0478C182.405 46.6574 182.507 48.3846 181.896 49.5022C181.591 50.315 179.86 50.6198 178.944 50.4166C178.537 50.315 178.13 51.5342 177.621 51.0262C177.214 50.6198 177.825 49.7054 178.334 49.299C178.843 48.8926 178.334 48.4862 178.537 48.1814C178.944 47.775 179.555 48.1814 179.962 47.775C180.471 47.3686 181.285 45.5398 181.794 46.0478ZM176.298 47.9782C176.502 48.4862 177.418 48.283 177.52 48.8926C177.621 49.299 176.807 50.2134 176.4 50.0102C175.789 49.5022 175.382 49.4006 175.077 48.8926C174.975 48.5878 175.28 48.0798 175.382 47.775C175.484 47.3686 174.873 47.0638 175.077 46.6574C175.179 46.4542 175.789 46.1494 176.095 46.251C176.807 46.5558 175.993 47.267 176.298 47.9782ZM174.67 54.4805C174.568 54.7853 175.179 54.4805 175.484 54.4805C175.789 54.3789 176.502 53.2613 177.112 54.3789C177.418 54.8869 176.502 56.0045 175.789 56.1061C174.975 56.3093 174.975 57.0205 174.568 57.7317C174.059 58.7477 173.245 59.9669 172.329 60.5765C171.515 61.0845 169.785 60.9829 169.581 60.0685C169.276 59.0525 171.006 58.9509 171.108 57.9349C171.209 57.4269 170.497 57.6301 170.293 57.1221C170.192 56.8173 170.599 56.2077 170.904 56.0045C171.718 55.5981 172.533 56.1061 173.041 55.3949C173.652 54.4805 173.347 53.8709 173.55 52.9565C173.652 52.6517 173.754 51.839 174.059 51.9406C175.382 52.7533 174.67 53.4645 174.67 54.4805ZM173.245 44.4222C173.652 44.1174 174.161 44.0158 174.161 43.5078C174.059 42.9998 173.449 42.187 173.143 42.4918C172.736 42.7966 172.838 43.4062 172.838 44.0158C172.838 44.1174 173.143 44.5238 173.245 44.4222ZM171.922 42.695C172.431 42.5934 172.838 42.187 172.634 41.5774C172.533 41.2726 171.718 40.9678 171.311 40.9678C171.108 41.0694 170.802 41.2726 170.904 41.4758C171.006 41.9838 171.413 42.7966 171.922 42.695ZM163.78 58.2397C163.576 58.6461 164.289 59.1541 164.797 59.2557C165.408 59.3573 165.815 59.7637 166.426 58.5445C166.629 58.2397 165.815 57.9349 165.408 57.8333C164.899 57.7317 163.983 57.9349 163.78 58.2397ZM170.701 40.7646C171.108 40.5614 169.581 38.7327 169.072 37.8183C168.36 36.4975 167.138 36.8023 165.815 36.5991C164.797 36.3959 163.78 35.9895 162.965 35.8879C162.253 35.8879 161.337 35.9895 160.421 36.0911C159.403 36.1927 158.386 35.8879 157.368 36.1927C156.757 36.3959 156.35 37.3103 155.943 37.8183C155.434 38.3263 155.841 38.5295 156.045 38.7327C156.248 38.8343 156.859 38.2247 157.062 38.2247C158.08 38.1231 156.961 40.0534 158.691 39.4438C159.607 39.1391 160.116 40.0534 161.032 39.8502C161.744 39.647 162.355 38.8343 163.067 38.8343C163.678 38.8343 164.289 39.3422 164.899 39.4438C165.612 39.5454 166.324 39.0375 166.935 39.2406C168.054 39.5454 169.581 41.171 170.701 40.7646ZM158.589 59.3573C158.691 59.2557 159.403 58.9509 159.912 59.0525C160.625 59.2557 161.642 60.0685 161.642 60.3733C161.541 60.6781 160.319 60.8813 159.607 60.8813C159.098 60.8813 158.793 60.5765 158.487 60.2717C158.284 59.9669 158.487 59.5605 158.589 59.3573ZM156.146 59.2557C156.655 59.3573 157.062 59.8653 157.571 60.0685C157.877 60.2717 158.386 60.2717 158.386 60.6781C158.284 60.8813 157.877 60.7797 157.368 60.8813C156.859 60.9829 156.248 61.3893 155.841 61.3893C155.129 61.2877 154.62 60.8813 154.111 60.3733C153.806 60.1701 154.314 59.5605 154.62 59.3573C155.027 59.1541 155.638 59.1541 156.146 59.2557ZM157.266 30.4015C157.47 29.9951 156.655 29.4871 156.146 29.4871C155.536 29.4871 155.332 28.6743 154.925 28.7759C154.416 28.8775 153.602 29.2839 153.602 29.6903C153.704 30.1983 154.518 30.5031 155.027 30.7063C155.536 30.9095 156.554 31.3159 157.266 30.4015ZM155.536 26.0327C155.536 25.4232 155.027 24.9152 154.518 24.8136C154.009 24.712 153.602 25.3216 153.398 25.8295C153.297 26.2359 153.704 26.3375 154.416 26.0327C154.722 25.9311 155.536 26.3375 155.536 26.0327ZM157.266 13.8408C157.978 13.6376 159.098 14.552 159.505 14.044C160.217 13.4344 161.235 11.7073 160.828 11.1993C160.625 10.9961 159.301 10.7929 158.793 11.0977C157.571 11.9105 156.859 13.2312 155.739 14.044C154.213 15.06 154.314 17.3968 154.009 18.9208C153.806 19.8352 153.398 19.632 153.398 20.4448C153.297 20.9528 153.806 20.8512 153.806 21.2576C153.907 21.7656 153.195 22.5784 153.195 23.0864C153.195 23.2896 154.009 23.7976 154.213 23.5944C154.823 23.188 154.111 21.8672 154.925 21.7656C155.536 21.7656 155.332 23.0864 155.841 23.5944C156.146 23.7976 155.841 24.204 155.943 24.6104C155.943 25.3216 156.554 26.1343 157.266 26.0327C157.877 25.9311 156.961 24.9152 156.961 24.3056C156.757 22.9848 156.452 21.2576 156.757 20.4448C156.961 19.8352 158.08 21.7656 158.793 21.7656C159.81 21.7656 160.421 22.68 160.625 22.4768C161.541 21.8672 160.217 21.156 159.81 20.5464C159.403 19.8352 158.182 19.632 158.487 19.0224C158.793 17.9048 160.014 18.4128 160.726 17.4984C161.337 16.584 161.439 15.7712 161.133 15.7712C160.421 15.9744 159.81 15.568 159.2 15.7712C158.487 15.9744 158.284 17.092 157.571 17.1936C157.164 17.2952 157.571 16.584 157.47 16.1776C157.368 15.6696 156.452 15.2632 156.554 14.7552C156.554 14.3488 156.961 13.9424 157.266 13.8408ZM150.345 36.9039C151.261 36.9039 152.584 37.5135 153.093 38.0215C153.398 38.2247 154.416 39.2406 154.009 39.5454C152.788 40.3582 151.159 40.4598 149.734 40.2566C148.717 40.0534 147.699 38.8343 147.902 37.8183C148.004 37.0055 149.429 36.9039 150.345 36.9039ZM147.088 33.9575C148.31 33.4495 146.579 33.0431 146.783 32.5351C146.986 32.1287 148.31 31.8239 148.004 31.5191C146.986 30.9095 144.34 30.9095 143.119 30.8079C141.592 30.8079 141.694 30.0967 140.88 30.2999C140.167 30.4015 139.251 31.2143 139.557 31.8239C139.964 32.4335 141.185 31.9255 141.999 32.0271C143.119 32.0271 143.933 31.8239 145.053 32.0271C145.969 32.1287 146.07 34.3639 147.088 33.9575ZM135.893 33.0431C136.809 32.9415 138.132 32.6367 138.234 31.8239C138.335 31.1127 136.605 31.6207 136.198 31.1127C135.791 30.6047 136.3 29.9951 136.503 29.4871C136.707 29.0807 135.587 28.7759 135.18 28.6743C134.773 28.4711 133.857 28.2679 133.348 28.4711C132.636 28.6743 132.025 28.9791 132.025 29.5887C132.025 30.1983 133.247 30.0967 133.654 30.6047C133.959 31.1127 133.348 31.9255 133.755 32.3319C134.061 32.6367 134.671 31.9255 135.18 32.1287C135.486 32.2303 135.486 33.0431 135.893 33.0431ZM131.007 25.0168C130.906 24.4072 129.684 23.7976 129.074 23.8992C128.565 23.8992 128.26 24.1024 127.852 24.3056C127.344 24.4072 126.835 24.5088 126.631 24.8136C126.428 25.22 127.038 25.9311 127.547 25.9311C128.056 26.0327 128.667 25.5248 129.175 25.3216C129.583 25.22 131.109 25.4232 131.007 25.0168ZM127.547 48.1814C128.158 48.3846 129.379 47.4702 128.87 47.1654C128.056 46.4542 128.056 45.743 127.445 45.743C126.936 45.743 126.936 46.5558 126.936 47.0638C126.936 47.4702 127.14 48.0798 127.547 48.1814ZM133.654 43.8126C133.959 43.3046 134.671 42.8982 134.163 42.0854C133.552 40.9678 131.516 40.9678 130.499 39.7486C130.091 39.3422 130.6 38.4279 130.397 37.9199C130.091 36.9039 128.972 36.1927 128.565 35.2783C127.852 33.7543 125.613 33.2463 126.122 32.0271C126.428 31.1127 129.277 30.6047 130.702 29.5887C132.331 28.3695 132.127 27.3535 132.941 27.0487C133.552 26.8455 134.264 27.5567 134.977 27.5567C135.384 27.5567 136.198 26.7439 135.893 26.4391C135.282 25.6264 134.061 25.8295 133.145 25.728C132.229 25.5248 131.516 26.6423 130.6 26.8455C130.091 27.0487 129.481 26.6423 128.972 26.8455C128.565 26.9471 128.463 27.4551 128.056 27.5567C127.14 27.6583 126.122 26.7439 125.308 27.0487C124.188 27.4551 124.494 29.5887 122.356 29.4871C120.932 29.4871 121.949 27.8615 121.44 27.3535C120.83 26.8455 119.405 27.3535 119.303 26.6423C119.201 24.3056 119.201 22.9848 120.524 21.8672C121.542 21.156 121.746 20.4448 122.662 20.3432C124.596 20.14 126.733 21.4608 129.175 21.3592C129.99 21.3592 131.109 21.2576 132.025 21.3592C133.959 21.4608 136.096 22.172 137.928 21.5624C140.575 20.648 141.999 19.4288 143.73 17.3968C144.238 16.8888 144.137 15.4664 143.526 15.2632C143.017 15.06 142.61 14.9584 142.101 15.2632C141.592 15.568 141.592 16.2792 141.185 16.6856C140.167 17.6 138.539 18.108 137.725 18.9208C136.809 19.9368 134.977 18.2096 133.552 18.108C133.145 18.108 132.432 18.8192 131.923 18.8192C130.906 18.8192 130.295 18.4128 129.175 18.3112C128.565 18.2096 127.954 18.108 127.344 18.108C125.919 18.0064 126.122 16.8888 123.069 16.9904C122.56 16.9904 122.865 17.9048 122.458 18.2096C121.644 18.8192 120.524 18.7176 119.71 19.3272C119.1 19.8352 118.998 20.7496 118.489 21.3592C118.285 21.664 117.573 21.7656 117.471 22.172C117.268 23.5944 117.675 24.8136 117.268 26.2359C116.962 27.4551 115.843 28.3695 115.436 29.4871C115.028 30.5031 115.436 31.6207 115.232 32.6367C115.232 32.9415 114.825 32.9415 114.621 33.1447C114.418 33.4495 114.316 33.8559 114.011 34.1607C113.705 34.4655 112.688 34.7703 112.789 35.1767C113.298 36.9039 112.891 37.6151 113.807 38.5295C114.316 39.0375 116.657 38.1231 116.555 38.8343C116.25 40.7646 116.657 41.9838 116.555 43.6094C116.453 44.8286 115.944 45.6414 115.741 46.9622C115.741 47.3686 116.759 48.1814 117.268 48.6894C117.471 48.8926 118.184 47.8766 118.692 47.775C119.303 47.5718 120.117 48.3846 120.524 47.8766C120.83 47.4702 120.219 46.759 120.117 46.251C120.016 45.8446 119.608 45.6414 119.71 45.235C119.812 44.6254 120.321 44.6254 120.423 44.0158C120.524 43.4062 120.016 42.4918 120.016 41.8822C120.016 40.5614 121.135 39.2406 121.033 37.9199C120.932 37.3103 119.608 36.9039 119.71 36.2943C119.812 35.5831 120.83 34.7703 121.542 34.7703C122.56 34.6687 124.087 35.1767 124.087 36.0911C124.188 37.6151 122.865 37.9199 122.967 38.7327C122.967 39.4438 124.188 39.7486 124.494 40.3582C124.799 40.8662 124.596 41.0694 124.901 41.679C125.003 41.8822 125.41 42.0854 125.613 42.2886C126.02 42.8982 126.02 43.6094 126.428 44.219C126.529 44.4222 126.733 44.4222 127.038 44.6254C127.14 44.727 127.547 45.235 127.751 45.1334C128.565 45.0318 128.972 43.8126 129.786 44.219C130.397 44.5238 129.175 45.5398 129.277 46.251C129.379 46.8606 129.888 47.1654 130.193 47.5718C130.702 48.283 130.193 48.6894 131.72 48.9942C132.432 49.0958 132.229 47.3686 132.941 47.3686C133.247 47.3686 133.959 47.1654 134.264 46.4542C134.264 46.251 133.552 44.0158 133.654 43.8126ZM120.728 52.2454C120.524 51.7374 120.728 51.1278 120.626 50.6198C120.626 50.1118 120.117 49.6038 120.728 49.0958C121.135 48.6894 121.644 49.4006 121.848 49.9086C122.153 50.6198 121.339 51.1278 121.542 51.9406C121.644 52.2454 120.83 52.5502 120.728 52.2454ZM145.867 58.4429C145.663 58.0365 145.969 57.4269 146.376 57.2237C147.394 56.6141 148.513 56.0045 149.734 56.1061C150.549 56.1061 151.668 56.5125 152.075 57.3253C152.279 57.7317 151.058 57.6301 150.549 57.9349C150.243 58.0365 150.04 58.2397 149.734 58.3413C149.124 58.4429 148.513 58.2397 147.902 58.4429C147.597 58.5445 147.495 59.0525 147.088 59.0525C146.681 59.0525 146.07 58.8493 145.867 58.4429ZM127.445 71.854C127.954 71.9556 127.649 70.838 127.649 70.2284C127.751 69.822 128.361 69.7204 127.751 68.806C127.344 68.298 126.428 69.2124 125.919 69.6188C125.613 69.9236 125.308 70.4316 125.715 70.6348C126.733 71.0412 127.14 71.854 127.445 71.854ZM125.512 72.87C125.919 72.5652 125.206 72.0572 125.512 71.4476C125.613 71.2444 125.41 70.7364 125.206 70.838C124.494 70.9396 124.087 71.1428 123.68 71.854C123.476 72.1588 123.883 72.4636 124.29 72.6668C124.697 72.87 125.206 73.1748 125.512 72.87ZM120.219 69.6188C120.626 69.7204 121.644 69.1108 122.967 68.5012C123.272 68.298 123.069 66.774 122.56 66.5708C120.932 65.8596 120.117 64.7421 118.489 64.1325C117.98 63.9293 117.471 64.6405 116.962 64.6405C116.25 64.5389 115.741 63.7261 115.028 63.7261C114.112 63.8277 113.298 64.5389 112.382 64.9453C112.179 65.0469 113.4 66.5708 114.316 67.0788C115.232 67.5868 116.352 67.3836 117.369 67.5868C117.878 67.6884 118.387 67.8916 118.896 68.1964C119.507 68.6028 119.507 69.4156 120.219 69.6188ZM102.408 62.7101C103.426 62.9133 104.037 63.8277 105.054 63.8277C106.479 63.7261 107.192 62.7101 108.617 62.4053C108.922 62.3037 109.736 62.8117 110.041 62.8117C110.55 62.7101 110.754 62.2021 111.263 62.1005C111.772 61.9989 112.281 62.3037 112.789 62.3037C113.196 62.3037 113.502 62.1005 113.807 62.2021C115.334 62.7101 114.927 61.7957 115.436 61.9989C115.944 62.1005 115.843 62.8117 116.352 62.8117C117.064 62.9133 117.675 62.7101 118.387 62.6085C119.405 62.5069 120.016 62.8117 121.339 62.6085C122.458 62.4053 123.578 63.2181 125.613 62.7101C125.919 62.6085 126.326 62.4053 126.631 62.4053C127.14 62.4053 127.649 62.6085 128.056 62.5069C128.565 62.4053 128.87 62.2021 129.277 62.1005C129.888 62.1005 130.499 62.3037 131.007 62.1005C131.72 61.9989 132.127 61.2877 132.839 61.1861C133.348 61.0845 133.959 61.4909 134.468 61.3893C134.977 61.2877 135.384 60.4749 135.893 60.5765C136.3 60.6781 135.282 61.5925 136.809 61.8973C138.946 62.4053 139.353 61.0845 140.778 60.5765C141.592 60.3733 143.221 60.4749 143.221 59.6621C143.323 58.8493 140.982 58.7477 140.167 58.7477C138.946 58.8493 138.335 59.7637 137.114 59.8653C136.707 59.9669 137.012 59.0525 135.995 59.0525C135.486 59.0525 135.079 59.4589 134.57 59.5605C133.45 59.5605 132.738 59.1541 131.618 59.3573C130.397 59.6621 129.888 60.4749 128.667 60.7797C127.649 60.9829 126.02 60.7797 125.003 60.7797C124.494 60.7797 123.985 61.0845 123.476 61.0845C122.255 60.8813 122.56 59.6621 120.219 59.8653C117.878 60.0685 117.573 61.3893 115.843 61.1861C113.705 60.8813 114.52 60.0685 113.502 59.6621C113.095 59.4589 112.382 60.3733 110.856 60.1701C109.634 59.9669 109.024 57.8333 108.311 58.7477C107.497 59.6621 111.059 60.6781 110.041 61.2877C109.94 61.3893 108.82 61.3893 108.311 60.9829C107.599 60.3733 106.581 60.0685 105.665 59.8653C105.156 59.6621 104.545 60.1701 104.037 59.9669C103.528 59.7637 103.426 59.2557 103.019 58.9509C102.51 58.6461 101.696 58.3413 101.085 58.4429C100.373 58.5445 99.4566 59.7637 98.7442 59.9669C98.2353 60.0685 97.9299 59.4589 97.5228 59.1541C96.8104 58.8493 96.6068 58.2397 95.8944 58.0365C95.2837 57.8333 94.7749 58.0365 94.0624 58.3413C93.7571 58.5445 93.7571 58.9509 93.8589 59.2557C93.8589 59.6621 94.0624 59.9669 94.266 60.2717C94.7749 60.8813 95.2837 61.4909 95.9962 61.6941C96.7086 61.9989 97.1157 61.6941 97.8282 61.8973C98.3371 62.1005 98.8459 62.9133 99.3548 62.9133C100.271 63.1165 101.492 62.4053 102.408 62.7101ZM94.9784 53.4645C94.8766 53.9725 95.6908 54.4805 96.3015 54.6837C96.6068 54.7853 97.014 54.4805 97.1157 54.3789C97.3193 54.0741 97.014 53.7693 96.7086 53.6677C96.098 53.4645 95.0802 53.2613 94.9784 53.4645ZM98.9477 43.4062C99.3548 43.5078 99.5584 43.3046 99.7619 42.9998C99.9655 42.7966 99.4566 42.4918 99.5584 42.2886C99.5584 41.9838 99.9655 41.7806 99.9655 41.5774C99.9655 41.4758 99.8637 41.0694 99.6602 41.0694C98.8459 41.171 99.253 41.7806 99.0495 42.0854C98.7442 42.3902 98.3371 42.5934 98.2353 42.8982C98.2353 43.203 98.7442 43.4062 98.9477 43.4062ZM83.1723 48.8926C83.5794 49.0958 84.19 48.5878 84.19 48.1814C84.19 47.775 83.4776 47.1654 83.1723 47.4702C82.7652 47.775 82.7652 48.5878 83.1723 48.8926ZM72.8928 48.9942C73.4017 49.0958 73.5035 48.3846 73.4017 47.9782C73.4017 47.775 72.6892 47.8766 72.4857 47.8766C72.0786 47.8766 71.875 47.3686 71.4679 47.4702C71.0608 47.6734 70.6537 48.0798 70.7555 48.4862C70.8573 48.8926 71.3661 48.9942 71.875 49.0958C72.1804 49.1974 72.4857 48.791 72.8928 48.9942ZM92.8411 62.2021C93.4518 62.2021 92.9429 61.0845 92.9429 60.4749C92.8411 59.6621 92.434 59.0525 92.7393 58.3413C93.0446 57.4269 91.8233 56.7157 91.2127 56.4109C90.0931 55.8013 89.7878 56.5125 88.9736 56.5125C88.4647 56.5125 87.854 56.3093 87.2434 56.3093C86.4291 56.3093 85.6149 56.4109 84.9025 56.1061C84.2918 55.9029 83.7829 54.3789 84.0883 54.2773C84.8007 54.1757 85.5131 54.6837 86.4291 54.5821C87.5487 54.4805 88.9736 54.9885 89.5842 54.0741C90.0931 53.3629 88.77 52.7533 87.9558 52.5502C87.0398 52.1438 85.9203 52.347 85.0043 52.5502C84.3936 52.6518 84.0883 53.2613 83.4776 53.3629C83.0705 53.3629 82.8669 52.8549 82.4598 52.7533C81.035 52.4485 79.4065 52.5502 77.9816 52.0422C76.8621 51.7374 76.0479 50.823 74.8266 50.6198C74.4194 50.5182 73.8088 50.823 73.6052 51.2294C73.2999 51.7374 73.2999 52.2454 71.3661 52.5502C70.5519 52.7533 69.5341 52.2454 68.7199 52.1438C68.0075 52.1438 67.3968 52.7533 66.6844 52.6518C64.3435 52.2454 64.14 49.7054 62.6133 49.807C61.4938 49.9086 60.2724 49.807 59.1529 49.4006C58.5422 49.1974 58.9493 48.5878 57.728 48.1814C57.2191 48.0798 56.9138 48.0798 56.4049 48.1814C55.7942 48.283 55.1836 48.4862 54.5729 48.5878C53.8605 48.5878 53.148 47.9782 52.4356 48.0798C51.6214 48.1814 50.9089 48.9942 50.4001 49.5022C49.8912 50.1118 50.5018 50.823 49.4841 51.2294C49.077 51.4326 48.4663 51.5342 47.9574 51.2294C47.6521 51.0262 47.245 51.2294 47.0414 51.0262C46.8379 50.7214 47.1432 50.315 46.9396 50.1118C46.6343 49.9086 45.8201 49.9086 45.7183 50.2134C45.5148 50.823 46.1254 50.6198 46.4308 51.7374C46.8379 52.6518 47.5503 53.3629 48.6699 53.6677C49.6876 53.8709 51.1125 53.1597 52.1303 53.5661C52.4356 53.6677 53.148 53.7693 53.2498 53.9725C53.2498 54.3789 52.4356 54.5821 52.6392 54.8869C53.0463 55.4965 54.6747 55.5981 55.7942 55.8013C56.4049 55.9029 57.1174 55.4965 57.4227 55.9029C57.728 56.3093 58.5422 56.8173 59.0511 56.8173C59.56 56.8173 60.0689 57.3253 60.6795 57.5285C60.9849 57.6301 61.0867 57.5285 61.4938 57.6301C61.9009 57.7317 63.1222 58.3413 63.4275 58.3413C64.8524 58.3413 64.4453 57.7317 65.3613 57.7317C65.6666 57.7317 66.0737 57.8333 66.3791 57.8333C67.0915 57.8333 67.7022 57.5285 68.4146 57.5285C68.7199 57.5285 68.8217 58.0365 69.127 57.9349C69.5341 57.9349 69.2288 57.3253 69.6359 57.3253C70.5519 57.2237 70.3484 58.1381 70.8573 58.1381C71.6715 58.1381 75.4372 60.1701 76.8621 60.2717C77.5745 60.2717 79.5083 59.6621 80.2207 59.7637C81.4421 59.8653 82.1545 60.4749 83.8847 60.5765C84.9025 60.5765 86.022 59.9669 87.0398 60.3733C88.0576 60.7797 88.9736 60.1701 89.8896 60.4749C90.8056 60.8813 90.9073 61.9989 92.8411 62.2021ZM141.694 64.1325C141.694 63.4213 141.287 63.6245 140.778 63.1165C139.15 64.1325 137.623 63.9293 136.096 64.9453C135.18 65.5549 135.486 66.774 134.061 67.79C133.654 68.0948 132.941 68.298 132.534 68.6028C132.331 68.806 132.229 69.2124 132.127 69.5172C132.127 70.0252 130.702 70.5332 130.906 70.9396C131.313 71.5492 131.516 72.2604 132.229 72.362C134.061 72.7684 134.264 71.0412 135.587 70.4316C135.995 70.2284 136.402 70.1268 136.911 70.1268C138.132 70.2284 139.964 68.806 141.389 67.79C141.796 67.4852 142.101 66.3676 142.915 66.0628C142.814 65.758 142.61 65.3517 142.101 65.2501C141.389 65.1485 141.694 64.4373 141.694 64.1325Z" fill="#DCDDDD" fill-opacity="0.501961"/>
</svg>
